<svg id="ehn3ofut8lD1" xmlns="http://www.w3.org/2000/svg" xmlns:xlink="http://www.w3.org/1999/xlink" viewBox="0 0 2000 2000" shape-rendering="geometricPrecision" text-rendering="geometricPrecision"><style><![CDATA[#ehn3ofut8lD2_to {animation: ehn3ofut8lD2_to__to 5000ms linear 1 normal forwards}@keyframes ehn3ofut8lD2_to__to { 0% {transform: translate(997.423px,1283.08px)} 20% {transform: translate(997.423px,1383.08345px)} 80% {transform: translate(997.423px,1383.08345px)} 100% {transform: translate(997.423px,1283.08px)}} #ehn3ofut8lD2_tr {animation: ehn3ofut8lD2_tr__tr 5000ms linear 1 normal forwards}@keyframes ehn3ofut8lD2_tr__tr { 0% {transform: rotate(0deg)} 20% {transform: rotate(0deg)} 80% {transform: rotate(360deg)} 100% {transform: rotate(360deg)}} #ehn3ofut8lD11_to {animation: ehn3ofut8lD11_to__to 5000ms linear 1 normal forwards}@keyframes ehn3ofut8lD11_to__to { 0% {transform: translate(996.721px,716.922px)} 20% {transform: translate(996.721px,616.922504px)} 80% {transform: translate(996.721px,616.922504px)} 100% {transform: translate(996.721px,716.922px)}} #ehn3ofut8lD11_tr {animation: ehn3ofut8lD11_tr__tr 5000ms linear 1 normal forwards}@keyframes ehn3ofut8lD11_tr__tr { 0% {transform: rotate(0deg)} 20% {transform: rotate(0deg)} 80% {transform: rotate(360deg)} 100% {transform: rotate(360deg)}} #ehn3ofut8lD20_tr {animation: ehn3ofut8lD20_tr__tr 5000ms linear 1 normal forwards}@keyframes ehn3ofut8lD20_tr__tr { 0% {transform: translate(997.265px,999.922px) rotate(0deg)} 20% {transform: translate(997.265px,999.922px) rotate(0deg)} 80% {transform: translate(997.265px,999.922px) rotate(-360deg)} 100% {transform: translate(997.265px,999.922px) rotate(-360deg)}} #ehn3ofut8lD24_to {animation: ehn3ofut8lD24_to__to 5000ms linear 1 normal forwards}@keyframes ehn3ofut8lD24_to__to { 0% {transform: translate(1315.96px,999.957px)} 20% {transform: translate(1415.957031px,999.957px)} 80% {transform: translate(1415.957031px,999.957px)} 100% {transform: translate(1315.96px,999.957px)}} #ehn3ofut8lD24_tr {animation: ehn3ofut8lD24_tr__tr 5000ms linear 1 normal forwards}@keyframes ehn3ofut8lD24_tr__tr { 0% {transform: rotate(0deg)} 20% {transform: rotate(0deg)} 80% {transform: rotate(360deg)} 100% {transform: rotate(360deg)}} #ehn3ofut8lD29_to {animation: ehn3ofut8lD29_to__to 5000ms linear 1 normal forwards}@keyframes ehn3ofut8lD29_to__to { 0% {transform: translate(682.957px,999.957px)} 20% {transform: translate(582.957687px,999.957px)} 80% {transform: translate(582.957687px,999.957px)} 100% {transform: translate(682.957px,999.957px)}} #ehn3ofut8lD29_tr {animation: ehn3ofut8lD29_tr__tr 5000ms linear 1 normal forwards}@keyframes ehn3ofut8lD29_tr__tr { 0% {transform: rotate(0deg)} 20% {transform: rotate(0deg)} 80% {transform: rotate(360deg)} 100% {transform: rotate(360deg)}}]]></style><g id="ehn3ofut8lD2_to" transform="translate(997.423,1283.08)"><g id="ehn3ofut8lD2_tr" transform="rotate(0)"><g transform="translate(0,0)"><g><g transform="translate(-997.423-1283.08)"><g transform="translate(431.422 434.078)"><rect width="397" height="397" rx="0" ry="0" transform="matrix(.707107-.707107 0.707107 0.707107 285.279 849)" fill="none" stroke="#9ccddc" stroke-width="5"/><rect width="347" height="347" rx="0" ry="0" transform="matrix(.707107-.707107 0.707107 0.707107 320.634 849)" fill="none" stroke="#9ccddc" stroke-width="5"/></g><g transform="translate(431.422 434.078)"><rect width="229.583" height="229.249" rx="0" ry="0" transform="matrix(.707107-.707107 0.707107 0.707107 404.121 849.461)" fill="none" stroke="#ef5b5b" stroke-width="5"/><rect width="200.51" height="200.218" rx="0" ry="0" transform="matrix(.707107-.707107 0.707107 0.707107 424.664 849.446)" fill="none" stroke="#ef5b5b" stroke-width="5"/></g></g></g></g></g></g><g id="ehn3ofut8lD11_to" transform="translate(996.721,716.922)"><g id="ehn3ofut8lD11_tr" transform="rotate(0)"><g transform="translate(0,0)"><g><g transform="translate(-997.264-716.922)"><g transform="translate(431.422 434.078)"><rect width="397" height="397" rx="0" ry="0" transform="matrix(.707107-.707107 0.707107 0.707107 285.121 282.843)" fill="none" stroke="#9ccddc" stroke-width="5"/><rect width="347" height="347" rx="0" ry="0" transform="matrix(.707107-.707107 0.707107 0.707107 320.477 282.843)" fill="none" stroke="#9ccddc" stroke-width="5"/></g><g transform="translate(431.422 434.078)"><rect width="229.583" height="229.249" rx="0" ry="0" transform="matrix(.707107-.707107 0.707107 0.707107 404.121 283.461)" fill="none" stroke="#ef5b5b" stroke-width="5"/><rect width="200.51" height="200.218" rx="0" ry="0" transform="matrix(.707107-.707107 0.707107 0.707107 424.664 283.446)" fill="none" stroke="#ef5b5b" stroke-width="5"/></g></g></g></g></g></g><g id="ehn3ofut8lD20_tr" transform="translate(997.265,999.922) rotate(0)"><g transform="translate(0,0)"><g transform="translate(-565.843-565.843)"><rect width="397" height="397" rx="0" ry="0" transform="matrix(.707107-.707107 0.707107 0.707107 285.121 565.843)" fill="none" stroke="#ced7e0" stroke-width="5"/><rect width="347" height="347" rx="0" ry="0" transform="matrix(.707107-.707107 0.707107 0.707107 320.477 565.843)" fill="none" stroke="#ced7e0" stroke-width="5"/></g></g></g><g id="ehn3ofut8lD24_to" transform="translate(1315.96,999.957)"><g id="ehn3ofut8lD24_tr" transform="rotate(0)"><g transform="translate(0,0)"><g><g transform="translate(-885.078-566.079)"><rect width="353.493" height="353.493" rx="0" ry="0" transform="matrix(.707107-.707107 0.707107 0.707107 635.121 566.079)" fill="none" stroke="#9ccddc" stroke-width="5"/><rect width="308.931" height="308.931" rx="0" ry="0" transform="matrix(.707107-.707107 0.707107 0.707107 666.631 566.079)" fill="none" stroke="#9ccddc" stroke-width="5"/></g></g></g></g></g><g id="ehn3ofut8lD29_to" transform="translate(682.957,999.957)"><g id="ehn3ofut8lD29_tr" transform="rotate(0)"><g transform="translate(0,0)"><g><g transform="translate(-252.079-566.079)"><rect width="353.493" height="353.493" rx="0" ry="0" transform="matrix(.707107-.707107 0.707107 0.707107 2.1213 566.079)" fill="none" stroke="#9ccddc" stroke-width="5"/><rect width="308.931" height="308.931" rx="0" ry="0" transform="matrix(.707107-.707107 0.707107 0.707107 33.6311 566.079)" fill="none" stroke="#9ccddc" stroke-width="5"/></g></g></g></g></g></svg>