<svg id="eaLtBYCrJO41" xmlns="http://www.w3.org/2000/svg" xmlns:xlink="http://www.w3.org/1999/xlink" viewBox="0 0 2000 2000" shape-rendering="geometricPrecision" text-rendering="geometricPrecision"><g transform="translate(.000001 0)"><g transform="translate(431.421651 434.078422)"><rect width="397" height="397" rx="0" ry="0" transform="matrix(.707107-.707107 0.707107 0.707107 285.279373 848.999942)" fill="none" stroke="#9ccddc" stroke-width="5"/><rect width="347" height="347" rx="0" ry="0" transform="matrix(.707107-.707107 0.707107 0.707107 320.634133 849.000182)" fill="none" stroke="#9ccddc" stroke-width="5"/></g><g transform="translate(431.42165 434.078422)"><rect width="229.583" height="229.249" rx="0" ry="0" transform="matrix(.707107-.707107 0.707107 0.707107 404.121333 849.460934)" fill="none" stroke="#5591a9" stroke-width="5"/><rect width="200.51" height="200.218" rx="0" ry="0" transform="matrix(.707107-.707107 0.707107 0.707107 424.663821 849.446233)" fill="none" stroke="#5591a9" stroke-width="5"/></g></g><g transform="translate(-.542847 0.000001)"><g transform="translate(431.421651 434.078423)"><rect width="397" height="397" rx="0" ry="0" transform="matrix(.707107-.707107 0.707107 0.707107 285.121196 282.843211)" fill="none" stroke="#9ccddc" stroke-width="5"/><rect width="347" height="347" rx="0" ry="0" transform="matrix(.707107-.707107 0.707107 0.707107 320.476663 282.842743)" fill="none" stroke="#9ccddc" stroke-width="5"/></g><g transform="translate(431.421651 434.078423)"><rect width="229.583" height="229.249" rx="0" ry="0" transform="matrix(.707107-.707107 0.707107 0.707107 404.120995 283.461496)" fill="none" stroke="#5591a9" stroke-width="5"/><rect width="200.51" height="200.218" rx="0" ry="0" transform="matrix(.707107-.707107 0.707107 0.707107 424.663983 283.445795)" fill="none" stroke="#5591a9" stroke-width="5"/></g></g><g transform="translate(431.42165 434.078423)"><rect width="397" height="397" rx="0" ry="0" transform="matrix(.707107-.707107 0.707107 0.707107 285.121415 565.84343)" fill="none" stroke="#ced7e0" stroke-width="5"/><rect width="347" height="347" rx="0" ry="0" transform="matrix(.707107-.707107 0.707107 0.707107 320.476882 565.842962)" fill="none" stroke="#ced7e0" stroke-width="5"/></g><g transform="translate(430.879333 433.878479)"><rect width="353.493" height="353.493" rx="0" ry="0" transform="matrix(.707107-.707107 0.707107 0.707107 635.120666 566.078934)" fill="none" stroke="#9ccddc" stroke-width="5"/><rect width="308.931" height="308.931" rx="0" ry="0" transform="matrix(.707107-.707107 0.707107 0.707107 666.6306 566.078999)" fill="none" stroke="#9ccddc" stroke-width="5"/></g><g transform="translate(430.878701 433.878113)"><rect width="353.493" height="353.493" rx="0" ry="0" transform="matrix(.707107-.707107 0.707107 0.707107 2.121299 566.0793)" fill="none" stroke="#9ccddc" stroke-width="5"/><rect width="308.931" height="308.931" rx="0" ry="0" transform="matrix(.707107-.707107 0.707107 0.707107 33.631149 566.07945)" fill="none" stroke="#9ccddc" stroke-width="5"/></g></svg>