<svg id="e2DIVAWgCTc1" xmlns="http://www.w3.org/2000/svg" xmlns:xlink="http://www.w3.org/1999/xlink" viewBox="0 0 2000 2000" shape-rendering="geometricPrecision" text-rendering="geometricPrecision"><style><![CDATA[#e2DIVAWgCTc2_to {animation: e2DIVAWgCTc2_to__to 5000ms linear infinite normal forwards}@keyframes e2DIVAWgCTc2_to__to { 0% {transform: translate(997.422547px,1283.078339px)} 20% {transform: translate(996.721496px,1382.721466px)} 80% {transform: translate(996.721496px,1382.721466px)} 100% {transform: translate(997.422547px,1283.078339px)}} #e2DIVAWgCTc2_tr {animation: e2DIVAWgCTc2_tr__tr 5000ms linear infinite normal forwards}@keyframes e2DIVAWgCTc2_tr__tr { 0% {transform: rotate(0deg)} 20% {transform: rotate(0deg)} 80% {transform: rotate(360deg)} 100% {transform: rotate(360deg)}} #e2DIVAWgCTc9_to {animation: e2DIVAWgCTc9_to__to 5000ms linear infinite normal forwards}@keyframes e2DIVAWgCTc9_to__to { 0% {transform: translate(996.721496px,716.921631px)} 20% {transform: translate(996.721496px,616.721496px)} 80% {transform: translate(996.721496px,616.721496px)} 100% {transform: translate(996.721496px,716.921631px)}} #e2DIVAWgCTc9_tr {animation: e2DIVAWgCTc9_tr__tr 5000ms linear infinite normal forwards}@keyframes e2DIVAWgCTc9_tr__tr { 0% {transform: rotate(0deg)} 20% {transform: rotate(0deg)} 80% {transform: rotate(360deg)} 100% {transform: rotate(360deg)}} #e2DIVAWgCTc16_tr {animation: e2DIVAWgCTc16_tr__tr 5000ms linear infinite normal forwards}@keyframes e2DIVAWgCTc16_tr__tr { 0% {transform: translate(997.264576px,999.921867px) rotate(0deg)} 20% {transform: translate(997.264576px,999.921867px) rotate(0deg)} 80% {transform: translate(997.264576px,999.921867px) rotate(-360deg)} 100% {transform: translate(997.264576px,999.921867px) rotate(-360deg)}} #e2DIVAWgCTc19_to {animation: e2DIVAWgCTc19_to__to 5000ms linear infinite normal forwards}@keyframes e2DIVAWgCTc19_to__to { 0% {transform: translate(1315.957366px,999.957397px)} 20% {transform: translate(1415.957366px,999.957397px)} 80% {transform: translate(1415.957366px,999.957397px)} 100% {transform: translate(1315.957366px,999.957397px)}} #e2DIVAWgCTc19_tr {animation: e2DIVAWgCTc19_tr__tr 5000ms linear infinite normal forwards}@keyframes e2DIVAWgCTc19_tr__tr { 0% {transform: rotate(0deg)} 20% {transform: rotate(0deg)} 80% {transform: rotate(360deg)} 100% {transform: rotate(360deg)}} #e2DIVAWgCTc22_to {animation: e2DIVAWgCTc22_to__to 5000ms linear infinite normal forwards}@keyframes e2DIVAWgCTc22_to__to { 0% {transform: translate(682.957382px,999.957398px)} 20% {transform: translate(582.957382px,999.957398px)} 80% {transform: translate(582.957382px,999.957398px)} 100% {transform: translate(682.957382px,999.957398px)}} #e2DIVAWgCTc22_tr {animation: e2DIVAWgCTc22_tr__tr 5000ms linear infinite normal forwards}@keyframes e2DIVAWgCTc22_tr__tr { 0% {transform: rotate(0deg)} 20% {transform: rotate(0deg)} 80% {transform: rotate(360deg)} 100% {transform: rotate(360deg)}}]]></style><g id="e2DIVAWgCTc2_to" transform="translate(997.422547,1283.078339)"><g id="e2DIVAWgCTc2_tr" transform="rotate(0)"><g transform="translate(-997.422546,-1283.078339)"><g transform="translate(431.421651 434.078422)"><rect width="397" height="397" rx="0" ry="0" transform="matrix(.707107-.707107 0.707107 0.707107 285.279373 848.999942)" fill="none" stroke="#9ccddc" stroke-width="5"/><rect width="347" height="347" rx="0" ry="0" transform="matrix(.707107-.707107 0.707107 0.707107 320.634133 849.000182)" fill="none" stroke="#9ccddc" stroke-width="5"/></g><g transform="translate(431.42165 434.078422)"><rect width="229.583" height="229.249" rx="0" ry="0" transform="matrix(.707107-.707107 0.707107 0.707107 404.121333 849.460934)" fill="none" stroke="#ef5b5b" stroke-width="5"/><rect width="200.51" height="200.218" rx="0" ry="0" transform="matrix(.707107-.707107 0.707107 0.707107 424.663821 849.446233)" fill="none" stroke="#ef5b5b" stroke-width="5"/></g></g></g></g><g id="e2DIVAWgCTc9_to" transform="translate(996.721496,716.921631)"><g id="e2DIVAWgCTc9_tr" transform="rotate(0)"><g transform="translate(-997.264343,-716.92163)"><g transform="translate(431.421651 434.078423)"><rect width="397" height="397" rx="0" ry="0" transform="matrix(.707107-.707107 0.707107 0.707107 285.121196 282.843211)" fill="none" stroke="#9ccddc" stroke-width="5"/><rect width="347" height="347" rx="0" ry="0" transform="matrix(.707107-.707107 0.707107 0.707107 320.476663 282.842743)" fill="none" stroke="#9ccddc" stroke-width="5"/></g><g transform="translate(431.421651 434.078423)"><rect width="229.583" height="229.249" rx="0" ry="0" transform="matrix(.707107-.707107 0.707107 0.707107 404.120995 283.461496)" fill="none" stroke="#ef5b5b" stroke-width="5"/><rect width="200.51" height="200.218" rx="0" ry="0" transform="matrix(.707107-.707107 0.707107 0.707107 424.663983 283.445795)" fill="none" stroke="#ef5b5b" stroke-width="5"/></g></g></g></g><g id="e2DIVAWgCTc16_tr" transform="translate(997.264576,999.921867) rotate(0)"><g transform="translate(-565.842926,-565.843444)"><rect width="397" height="397" rx="0" ry="0" transform="matrix(.707107-.707107 0.707107 0.707107 285.121415 565.84343)" fill="none" stroke="#ced7e0" stroke-width="5"/><rect width="347" height="347" rx="0" ry="0" transform="matrix(.707107-.707107 0.707107 0.707107 320.476882 565.842962)" fill="none" stroke="#ced7e0" stroke-width="5"/></g></g><g id="e2DIVAWgCTc19_to" transform="translate(1315.957366,999.957397)"><g id="e2DIVAWgCTc19_tr" transform="rotate(0)"><g transform="translate(-885.078033,-566.078918)"><rect width="353.493" height="353.493" rx="0" ry="0" transform="matrix(.707107-.707107 0.707107 0.707107 635.120666 566.078934)" fill="none" stroke="#9ccddc" stroke-width="5"/><rect width="308.931" height="308.931" rx="0" ry="0" transform="matrix(.707107-.707107 0.707107 0.707107 666.6306 566.078999)" fill="none" stroke="#9ccddc" stroke-width="5"/></g></g></g><g id="e2DIVAWgCTc22_to" transform="translate(682.957382,999.957398)"><g id="e2DIVAWgCTc22_tr" transform="rotate(0)"><g transform="translate(-252.078681,-566.079285)"><rect width="353.493" height="353.493" rx="0" ry="0" transform="matrix(.707107-.707107 0.707107 0.707107 2.121299 566.0793)" fill="none" stroke="#9ccddc" stroke-width="5"/><rect width="308.931" height="308.931" rx="0" ry="0" transform="matrix(.707107-.707107 0.707107 0.707107 33.631149 566.07945)" fill="none" stroke="#9ccddc" stroke-width="5"/></g></g></g></svg>